<svg width="45" height="45" viewBox="0 0 45 45" fill="none" xmlns="http://www.w3.org/2000/svg">
<rect width="45" height="45" rx="7.55137" fill="#0B090B"/>
<path d="M9.52973 37.4486L6.74377 6.20154H37.3562L34.5672 37.4438L22.0313 40.919L9.52973 37.4486Z" fill="#E44D26"/>
<path d="M22.05 38.2628L32.1797 35.4543L34.5631 8.75641H22.05V38.2628Z" fill="#F16529"/>
<path d="M22.05 20.3455H16.9788L16.6285 16.4209H22.05V12.5888H12.4402L12.5321 13.6169L13.4738 24.1779H22.05V20.3455ZM22.05 30.2984L22.033 30.3031L17.7651 29.1503L17.4925 26.0942H13.6451L14.1819 32.1114L22.0325 34.2906L22.05 34.2859V30.2984Z" fill="#EBEBEB"/>
<path d="M22.0366 20.3455V24.1779H26.7556L26.3109 29.1481L22.0366 30.3017V34.2889L29.8933 32.1114L29.9509 31.464L30.8514 21.3747L30.9447 20.3455H29.9122H22.0366ZM22.0366 12.5888V16.4209H31.2936L31.3705 15.5599L31.5454 13.6169L31.637 12.5888H22.0366Z" fill="white"/>
</svg>
